<?xml version="1.0" encoding="UTF-8"?>
<svg width="20px" height="20px" viewBox="0 0 20 20" version="1.1" xmlns="http://www.w3.org/2000/svg" xmlns:xlink="http://www.w3.org/1999/xlink">
    <title>ic_login_scan</title>
    <g id="ic_login_scan" stroke="none" stroke-width="1" fill="none" fill-rule="evenodd" opacity="0.4">
        <g id="验证码" transform="translate(1.000000, 0.000000)" fill="#B72113" fill-rule="nonzero">
            <path d="M17.8657895,4.31867671 C17.8029225,3.70860802 17.3480142,3.20879859 16.7408307,3.08268024 C15.509892,2.89141646 14.2940926,2.61479846 13.1024365,2.25487485 C11.935474,1.78187325 10.841249,1.14974506 9.85161383,0.376891306 C9.33266767,0.00770289806 8.63303803,0.00770289806 8.11409186,0.376891306 C7.17727913,1.23323386 6.05794235,1.87083738 4.83861252,2.24269004 C3.70957933,2.70408496 2.51689537,2.9954479 1.30038595,3.10704986 C0.6798826,3.20614589 0.215154609,3.72240188 0.187755466,4.34304633 C0.187755466,4.34304633 0.15,7.44484152 0.15,10.1750001 C0.15,15.1174628 6.05064004,19.9 9.00173058,19.9 C11.9520506,19.9 16.9534941,16.5263313 17.7532936,10.249632 C17.9536287,6.54240418 17.8149352,4.33086152 17.8149352,4.33086152 L17.8657895,4.31791516 L17.8657895,4.31867671 Z M14.6527222,8.13632938 L8.48856444,13.8822279 C8.21117734,14.1434397 7.7873915,14.1845635 7.46377321,13.9812295 L7.30196407,13.844912 L3.90089001,10.3486336 C3.5832197,10.0075329 3.60547049,9.47649116 3.95058853,9.16251868 C4.29570658,8.84854621 4.8330027,8.87053799 5.150673,9.21163869 L7.9515122,12.1154308 L13.5023363,6.92546408 C13.7257261,6.7223595 14.0417781,6.65247292 14.3314383,6.74212995 C14.6210986,6.83178698 14.8403609,7.06736658 14.9066313,7.36012819 C14.9729017,7.6528898 14.8761121,7.95835597 14.6527222,8.16146055 L14.6527222,8.13632938 L14.6527222,8.13632938 Z" id="Shape"></path>
        </g>
    </g>
</svg>