<?xml version="1.0" standalone="no"?><!DOCTYPE svg PUBLIC "-//W3C//DTD SVG 1.1//EN" "http://www.w3.org/Graphics/SVG/1.1/DTD/svg11.dtd"><svg t="1664948924878" class="icon" viewBox="0 0 1024 1024" version="1.1" xmlns="http://www.w3.org/2000/svg" p-id="6762" xmlns:xlink="http://www.w3.org/1999/xlink" width="200" height="200"><path d="M944.7936 474.4704l-110.2848-98.4576V222.1568c0-10.3424-8.3968-18.688-18.688-18.688h-81.8176c-10.3424 0-18.688 8.3968-18.688 18.688v47.4112l-177.3056-158.3104a46.59712 46.59712 0 0 0-62.2592 0.1024L77.5168 468.8896c-27.2384 24.4736-9.9328 69.632 26.6752 69.632h93.696v300.8c0 39.5776 32.1024 71.68 71.68 71.68h481.3824c39.5776 0 71.68-32.1024 71.68-71.68v-300.8h97.7408c33.6896 0 49.5616-41.6256 24.4224-64.0512z" fill="#FF5757" p-id="6763"></path><path d="M659.4048 660.8896l-25.1392-21.2992c66.7136-107.6736-0.256-203.2128-47.7184-240.2304a28.1344 28.1344 0 0 0-39.5264 4.9152 28.1344 28.1344 0 0 0 4.9152 39.5264c3.84 2.9696 86.9376 69.4272 38.7072 158.7712L471.7568 501.8624l5.8368-6.4c10.4448-11.52 9.6256-29.3376-1.8944-39.7824-11.52-10.4448-29.3376-9.6256-39.7824 1.8944l-44.1856 48.64c-10.4448 11.52-9.6256 29.3376 1.8944 39.7824 5.376 4.9152 12.1856 7.3216 18.944 7.3216 7.68 0 15.3088-3.1232 20.8384-9.216l0.4608-0.512 120.4224 102.0928c-58.0608 39.0656-135.4752-15.0528-139.1616-17.664a28.15488 28.15488 0 0 0-37.4784 4.096l-21.8112 24.4224c-10.3424 11.6224-9.3696 29.3888 2.2528 39.7824s29.3888 9.3696 39.7824-2.2528l5.9392-6.656c27.8528 15.5136 65.0752 28.9792 103.3728 28.9792 31.232 0 63.1296-9.0624 91.1872-33.28l24.6272 20.8384c5.2736 4.5056 11.776 6.656 18.176 6.656 7.9872 0 15.9232-3.3792 21.504-9.9328 10.0352-11.9808 8.5504-29.7472-3.2768-39.7824z" fill="#FFFFFF" p-id="6764"></path></svg>