<?xml version="1.0" encoding="UTF-8"?>
<svg width="19px" height="18px" viewBox="0 0 19 18" version="1.1" xmlns="http://www.w3.org/2000/svg" xmlns:xlink="http://www.w3.org/1999/xlink">
    <title>ic_titlebar_signout</title>
    <g id="页面-1" stroke="none" stroke-width="1" fill="none" fill-rule="evenodd">
        <g id="2_内页" transform="translate(-1792.000000, -21.000000)" fill="#FFFFFF" fill-rule="nonzero">
            <g id="Group-6" transform="translate(1793.000000, 19.000000)">
                <g id="退出登录" transform="translate(0.000000, 2.000000)">
                    <path d="M9.08854167,16.725 C4.84842122,16.725 1.4,13.2765788 1.4,9.03645833 C1.4,6.33640951 2.79827474,3.88056641 5.13792318,2.47047526 C5.48650716,2.26171875 5.9434082,2.37200521 6.15413411,2.72255859 C6.36486003,3.07311198 6.25457357,3.52804362 5.90205078,3.74073893 C4.00945638,4.88102214 2.88098958,6.86223958 2.88098958,9.03842773 C2.88098958,12.4592773 5.66572266,15.2440104 9.08657227,15.2440104 C12.5074219,15.2440104 15.2921549,12.4592773 15.2921549,9.03842773 C15.2921549,6.86223958 14.1636882,4.88102214 12.2710937,3.74073893 C11.9205404,3.53001302 11.8082845,3.07508138 12.017041,2.72255859 C12.2317057,2.37200521 12.6866374,2.26171875 13.0352214,2.47047526 C15.3748698,3.88056641 16.7731479,6.33640951 16.7731479,9.03645833 C16.7770833,13.2765788 13.3286621,16.725 9.08854167,16.725 Z M9.08854167,9.39685872 C8.67890625,9.39685872 8.34804687,9.06599935 8.34804687,8.65636393 L8.34804687,2.34049479 C8.34804687,1.93085938 8.67890625,1.6 9.08854167,1.6 C9.49817708,1.6 9.82904515,1.93085938 9.82904515,2.34049479 L9.82904515,8.65439453 C9.83100586,9.06402995 9.49817708,9.39685872 9.08854167,9.39685872 L9.08854167,9.39685872 Z" id="Shape"></path>
                </g>
            </g>
        </g>
    </g>
</svg>