<?xml version="1.0" encoding="UTF-8"?>
<svg width="18px" height="18px" viewBox="0 0 18 18" version="1.1" xmlns="http://www.w3.org/2000/svg" xmlns:xlink="http://www.w3.org/1999/xlink">
    <title>ic_titlebar_administrators</title>
    <g id="页面-1" stroke="none" stroke-width="1" fill="none" fill-rule="evenodd">
        <g id="2_内页" transform="translate(-1609.000000, -21.000000)" fill="#FFFFFF" fill-rule="nonzero" stroke="#FFFFFF">
            <g id="Group" transform="translate(1609.000000, 19.000000)">
                <g id="编组" transform="translate(0.000000, 2.000000)">
                    <g id="编组-3" transform="translate(0.851403, 1.300000)">
                        <path d="M1.31062387,14.6417015 C0.258328313,14.6417015 -0.0158265034,13.6178098 0.000693348242,13.3309815 C0.156456067,10.6265285 2.44431629,8.05044322 4.68928774,7.65652293 C3.4584897,6.90525659 2.70722335,5.5785522 2.70722335,4.12397268 C2.70722335,1.84619707 4.56141262,-4.52970994e-14 6.83119604,-4.52970994e-14 C9.10097945,-4.52970994e-14 10.9551687,1.85418927 10.9551687,4.12397268 C10.9551687,6.36977951 9.20487799,8.1840078 6.96706335,8.24794537 L6.92710238,8.24794537 C3.75703258,8.24794537 1.56441293,10.4175665 1.08174104,13.046942 C1.08174104,13.046942 1.08174104,13.046942 1.08174104,13.046942 C1.03118183,13.3223655 1.2134703,13.5866266 1.48889374,13.6371858 C1.51932138,13.6427714 1.55019637,13.6455605 1.5811324,13.6455182 C1.66889417,13.645382 1.74529652,13.6452933 1.81033942,13.6452357 C3.16554662,13.6440364 5.48481736,13.646498 6.1188643,13.646498 C6.88363722,13.646498 6.88363722,14.6417015 6.1188643,14.6417015 C5.35409138,14.6417015 1.82312423,14.6417015 1.31062387,14.6417015 Z M6.83119604,0.96705561 C5.0888975,0.96705561 3.68227116,2.38167415 3.68227116,4.11598049 C3.68227116,5.85028683 5.0968897,7.27289756 6.83119604,7.27289756 C8.56550238,7.27289756 9.98012092,5.85827902 9.98012092,4.12397268 C9.98012092,2.38966634 8.57349457,0.96705561 6.83119604,0.96705561 Z" id="形状" stroke-width="0.2"></path>
                        <path d="M10.763356,15.976398 L10.475637,15.9284449 L10.0520507,14.5777639 C10.0120897,14.4658732 9.88421457,14.377959 9.76433165,14.377959 L9.72437067,14.377959 L8.38967409,14.5857561 L8.1978614,14.3939434 C8.0380175,14.2340995 7.88616579,14.0263024 7.77427506,13.7945288 C7.59844677,13.4908254 7.49454823,13.2430673 7.43061067,13.0112937 L7.33470433,12.7635356 L8.22183799,11.8684098 C8.30975214,11.756519 8.30175994,11.5886829 8.22983018,11.5167532 L8.22183799,11.508761 L7.36667311,10.4697756 L7.46257945,10.2220176 C7.62242335,9.74248585 7.8781736,9.29492293 8.25380677,8.8553522 L8.26179896,8.84736 L8.45361165,8.65554732 L9.72437067,8.86334439 L9.76433165,8.86334439 C9.88421457,8.86334439 10.0280741,8.77543024 10.0840195,8.65554732 L10.5395746,7.42474927 L10.7873326,7.3767961 C11.091036,7.31285854 11.4107238,7.27289756 11.7304116,7.27289756 C12.0500995,7.27289756 12.3777795,7.30486634 12.7054595,7.3767961 L12.9851863,7.42474927 L13.4167648,8.53566439 C13.4567258,8.66353951 13.6005853,8.87133659 13.7364526,8.87133659 L13.7764136,8.87133659 L15.0791414,8.69550829 L15.2709541,8.88732098 L15.2789463,8.89531317 C15.4547746,9.11110244 15.5906419,9.27893854 15.6945404,9.51870439 C15.7744624,9.65457171 15.8463921,9.8383922 15.9263141,10.0142205 C15.9502907,10.0701659 15.9742673,10.1341034 15.9982438,10.1900488 L16.1021424,10.445799 L15.2469775,11.4767922 C15.1590634,11.5806907 15.1590634,11.7645112 15.2469775,11.876402 L16.1021424,12.8674341 L15.9982438,13.1231844 C15.798439,13.6746459 15.5426887,14.1222088 15.2389853,14.457881 L15.0471726,14.6496937 L13.7444448,14.4418966 L13.7044838,14.4418966 C13.5846009,14.4418966 13.4567258,14.5298107 13.4167648,14.6417015 L12.9532175,15.9204527 L12.6974673,15.9684059 C12.3857716,16.0483278 12.0580916,16.0802966 11.7384038,16.0802966 C11.418716,16.0802966 11.0830438,16.0483278 10.763356,15.976398 Z M11.7703726,15.1212332 C11.9382087,15.1212332 12.1060448,15.113241 12.2658887,15.0892644 L12.5296312,14.3459902 C12.6894751,13.8584663 13.1929834,13.4988176 13.7204682,13.4988176 C13.792398,13.4988176 13.8643277,13.5068098 13.9282653,13.5227941 L14.6555551,13.6346849 C14.7674458,13.474841 14.8953209,13.2670439 14.9832351,13.0432624 L14.5116955,12.4838088 C14.120078,12.0202615 14.1040936,11.3009639 14.4797268,10.8613932 L14.9752429,10.2779629 C14.9272897,10.1820566 14.8713443,10.0701659 14.7994146,9.95028293 L14.7914224,9.94229073 C14.7434692,9.8383922 14.6875238,9.75847024 14.6235863,9.6705561 L13.8563355,9.75847024 C13.8083824,9.76646244 13.752437,9.76646244 13.7044838,9.76646244 C13.1450302,9.76646244 12.6415219,9.40681366 12.4656936,8.88732098 L12.2339199,8.21597659 C12.074076,8.192 11.9142321,8.1840078 11.7543882,8.1840078 C11.5945443,8.1840078 11.4347004,8.192 11.2748565,8.21597659 L11.0111141,8.92728195 C10.8512702,9.41480585 10.3397697,9.77445463 9.79630043,9.77445463 C9.72437067,9.77445463 9.64444872,9.76646244 9.57251896,9.75047805 L8.83723701,9.63059512 C8.70936189,9.80642341 8.60546335,10.0062283 8.50955701,10.2140254 C8.50955701,10.2220176 8.50156482,10.2300098 8.50156482,10.238002 L8.99708092,10.8214322 C9.38070628,11.2769873 9.38070628,11.8843941 8.99708092,12.3399493 L8.49357262,12.9313717 C8.54951799,13.0512546 8.59747116,13.1551532 8.67739311,13.2830283 L8.68538531,13.2910205 C8.73333848,13.3869268 8.78129165,13.4588566 8.83723701,13.5227941 L9.65244092,13.4029112 C9.70838628,13.394919 9.75633945,13.394919 9.81228482,13.394919 C10.3717385,13.394919 10.8752468,13.8584663 11.0510751,14.377959 L11.2748565,15.0892644 C11.4347004,15.113241 11.6025365,15.1212332 11.7703726,15.1212332 Z" id="形状" stroke-width="0.05"></path>
                        <path d="M11.7543882,13.3309815 C10.843278,13.3309815 10.107996,12.5956995 10.107996,11.6845893 C10.107996,10.773479 10.843278,10.0381971 11.7543882,10.0381971 C12.6654985,10.0381971 13.4007804,10.773479 13.4007804,11.6845893 C13.4007804,12.5797151 12.6415219,13.3309815 11.7543882,13.3309815 Z M11.7543882,11.0132449 C11.3787551,11.0132449 11.0830438,11.3089561 11.0830438,11.6845893 C11.0830438,12.0602224 11.3787551,12.3559337 11.7543882,12.3559337 C12.1300214,12.3559337 12.4257326,12.0602224 12.4257326,11.6845893 C12.4257326,11.3089561 12.1300214,11.0132449 11.7543882,11.0132449 Z" id="形状" stroke-width="0.05"></path>
                    </g>
                </g>
            </g>
        </g>
    </g>
</svg>