<?xml version="1.0" standalone="no"?><!DOCTYPE svg PUBLIC "-//W3C//DTD SVG 1.1//EN" "http://www.w3.org/Graphics/SVG/1.1/DTD/svg11.dtd"><svg t="1668256799355" class="icon" viewBox="0 0 1024 1024" version="1.1" xmlns="http://www.w3.org/2000/svg" p-id="2743" xmlns:xlink="http://www.w3.org/1999/xlink" width="200" height="200"><path d="M909.653333 421.546667H641.706667c-32.426667 0-59.733333-27.306667-59.733334-59.733334V93.866667c0-32.426667 27.306667-59.733333 59.733334-59.733334h267.946666c32.426667 0 59.733333 27.306667 59.733334 59.733334v267.946666c0 32.426667-27.306667 59.733333-59.733334 59.733334zM641.706667 85.333333c-5.12 0-8.533333 3.413333-8.533334 8.533334v267.946666c0 5.12 3.413333 8.533333 8.533334 8.533334h267.946666c5.12 0 8.533333-3.413333 8.533334-8.533334V93.866667c0-5.12-3.413333-8.533333-8.533334-8.533334H641.706667zM382.293333 989.866667H114.346667c-32.426667 0-59.733333-27.306667-59.733334-59.733334V662.186667c0-32.426667 27.306667-59.733333 59.733334-59.733334h267.946666c32.426667 0 59.733333 27.306667 59.733334 59.733334v267.946666c0 32.426667-27.306667 59.733333-59.733334 59.733334zM114.346667 653.653333c-5.12 0-8.533333 3.413333-8.533334 8.533334v267.946666c0 5.12 3.413333 8.533333 8.533334 8.533334h267.946666c5.12 0 8.533333-3.413333 8.533334-8.533334V662.186667c0-5.12-3.413333-8.533333-8.533334-8.533334H114.346667zM105.813333 539.306667c-13.653333 0-25.6-11.946667-25.6-25.6 0-238.933333 194.56-433.493333 433.493334-433.493334 13.653333 0 25.6 11.946667 25.6 25.6s-10.24 23.893333-23.893334 23.893334C303.786667 129.706667 131.413333 302.08 131.413333 513.706667c0 13.653333-10.24 25.6-25.6 25.6zM515.413333 947.2c-13.653333 0-25.6-11.946667-25.6-25.6s11.946667-25.6 25.6-25.6c211.626667 0 382.293333-172.373333 382.293334-382.293333 0-13.653333 11.946667-25.6 25.6-25.6s25.6 11.946667 25.6 25.6c0 238.933333-194.56 433.493333-433.493334 433.493333z" fill="#ffffff" p-id="2744"></path></svg>